<?xml version="1.0"?>
<svg width="180" height="120" xmlns="http://www.w3.org/2000/svg" xmlns:svg="http://www.w3.org/2000/svg">
 <!-- Created with SVG-edit - http://svg-edit.googlecode.com/ -->
 <g>
  <title>Layer 1</title>
  <path id="svg_4" d="m111.5,5.5l-89,87l115,10l24,16l-44,-44l60,-40c0,0 -72,-3 -72,-3c0,0 -21,37 -21,37c0,0 -18,6 -18,6" stroke-linecap="null" stroke-linejoin="null" stroke-dasharray="null" stroke-width="5" fill="#7fff00"/>
  <path id="svg_5" d="m88,0l-89,87l115,10l24,16l-44,-44l60,-40c0,0 -72,-3 -72,-3c0,0 -21,37 -21,37c0,0 -18,6 -18,6" stroke-linecap="null" stroke-linejoin="null" stroke-dasharray="null" stroke-width="5" fill="#ffff00"/>
  <text stroke="#000000" transform="matrix(2.1434782593724435,0,0,2.40625,-339.4041110957302,-267.1875) " xml:space="preserve" text-anchor="middle" font-family="serif" font-size="24" id="svg_1" y="143.558442" x="199.401623" stroke-width="0" fill="#0000ff">L.G.</text>
  <polygon strokeWidth="5" strokecolor="#000000" fill="#000000" edge="0" orient="x" sides="5" shape="regularPoly" id="svg_2" cy="192" cx="133"/>
  <polygon transform="rotate(1.2453643083572388 306.49999999999625,407.50000000000136) " stroke-width="5" points="306.5,407.5 306.5,407.5 306.5,407.5 306.5,407.5 306.5,407.5 306.5,407.5 " strokeWidth="5" strokecolor="none" fill="#000000" edge="0" orient="x" sides="5" shape="regularPoly" id="svg_3" cy="392" cx="264"/>
 </g>
</svg>